# xmcd
#
# Track frame offsets: 
#        150
#        17447
#        38529
#        61411
#        79066
#        97807
#        115513
#        134902
#        154012
#        171169
#        188397
#        205183
#        226884
#        247315
#        264391
#        279361
#
# Disc length: 3903 seconds
#
# Revision: 3
# Processed by: cddbd v1.5.2PL0 Copyright (c) Steve Scherf et al.
# Submitted via: ExactAudioCopy v0.99pb4
#
DISCID=c80f3d10
DTITLE=Los Temerarios - Regalo de amor
DYEAR=2005
DGENRE=Grupera
TTITLE0=Esos amores
TTITLE1=Te hice mal
TTITLE2=Como te recuerdo
TTITLE3=Una tarde fue
TTITLE4=Mi vida eres tu
TTITLE5=Como tu
TTITLE6=Dicen que la distancia
TTITLE7=Me resisto
TTITLE8=He intentado tanto, tanto
TTITLE9=Bella pero mala
TTITLE10=Estaba solo
TTITLE11=Eras todo para mi
TTITLE12=Dijiste adiós
TTITLE13=En la madrugada se fue
TTITLE14=Sombras [versión pop]
TTITLE15=Sombras [versión bachata]
EXTD=
EXTT0=
EXTT1=
EXTT2=
EXTT3=
EXTT4=
EXTT5=
EXTT6=
EXTT7=
EXTT8=
EXTT9=
EXTT10=
EXTT11=
EXTT12=
EXTT13=
EXTT14=
EXTT15=
PLAYORDER=
